<mxfile host="Electron" modified="2024-06-14T07:10:38.065Z" agent="Mozilla/5.0 (Windows NT 10.0; Win64; x64) AppleWebKit/537.36 (KHTML, like Gecko) draw.io/22.1.11 Chrome/114.0.5735.289 Electron/25.9.8 Safari/537.36" etag="Xn7Lrq8yHMdyCR2kIUp9" version="22.1.11" type="device" pages="2">
  <diagram name="ND2HS" id="PsmAFtHxcsCc1utvVl6T">
    <mxGraphModel dx="1032" dy="762" grid="1" gridSize="10" guides="1" tooltips="1" connect="1" arrows="1" fold="1" page="1" pageScale="1" pageWidth="1636" pageHeight="1580" math="0" shadow="0">
      <root>
        <mxCell id="0" />
        <mxCell id="1" parent="0" />
        <mxCell id="vbVjUOtdHf43oiDIbCuN-1" value="" style="verticalLabelPosition=bottom;shadow=0;dashed=0;align=center;html=1;verticalAlign=top;shape=mxgraph.electrical.transistors.nmos;pointerEvents=1;" parent="1" vertex="1">
          <mxGeometry x="500" y="340" width="60" height="100" as="geometry" />
        </mxCell>
        <mxCell id="vbVjUOtdHf43oiDIbCuN-2" value="" style="verticalLabelPosition=bottom;shadow=0;dashed=0;align=center;html=1;verticalAlign=top;shape=mxgraph.electrical.transistors.nmos;pointerEvents=1;" parent="1" vertex="1">
          <mxGeometry x="500" y="430" width="60" height="100" as="geometry" />
        </mxCell>
        <mxCell id="vbVjUOtdHf43oiDIbCuN-3" value="" style="verticalLabelPosition=bottom;shadow=0;dashed=0;align=center;html=1;verticalAlign=top;shape=mxgraph.electrical.transistors.pmos;pointerEvents=1;" parent="1" vertex="1">
          <mxGeometry x="500" y="250" width="60" height="100" as="geometry" />
        </mxCell>
        <mxCell id="vbVjUOtdHf43oiDIbCuN-4" value="" style="verticalLabelPosition=bottom;shadow=0;dashed=0;align=center;html=1;verticalAlign=top;shape=mxgraph.electrical.transistors.pmos;pointerEvents=1;" parent="1" vertex="1">
          <mxGeometry x="380" y="250" width="60" height="100" as="geometry" />
        </mxCell>
        <mxCell id="vbVjUOtdHf43oiDIbCuN-8" value="" style="endArrow=none;html=1;rounded=0;entryX=0;entryY=0.5;entryDx=0;entryDy=0;entryPerimeter=0;" parent="1" target="vbVjUOtdHf43oiDIbCuN-3" edge="1">
          <mxGeometry width="50" height="50" relative="1" as="geometry">
            <mxPoint x="480" y="390" as="sourcePoint" />
            <mxPoint x="460" y="420" as="targetPoint" />
            <Array as="points">
              <mxPoint x="480" y="300" />
            </Array>
          </mxGeometry>
        </mxCell>
        <mxCell id="vbVjUOtdHf43oiDIbCuN-9" value="" style="endArrow=none;html=1;rounded=0;entryX=0;entryY=0.5;entryDx=0;entryDy=0;entryPerimeter=0;exitX=1;exitY=0.5;exitDx=0;exitDy=0;exitPerimeter=0;" parent="1" source="vbVjUOtdHf43oiDIbCuN-24" target="vbVjUOtdHf43oiDIbCuN-2" edge="1">
          <mxGeometry width="50" height="50" relative="1" as="geometry">
            <mxPoint x="320" y="480" as="sourcePoint" />
            <mxPoint x="460" y="420" as="targetPoint" />
          </mxGeometry>
        </mxCell>
        <mxCell id="vbVjUOtdHf43oiDIbCuN-10" value="" style="endArrow=none;html=1;rounded=0;entryX=0;entryY=0.5;entryDx=0;entryDy=0;entryPerimeter=0;" parent="1" target="vbVjUOtdHf43oiDIbCuN-4" edge="1">
          <mxGeometry width="50" height="50" relative="1" as="geometry">
            <mxPoint x="360" y="480" as="sourcePoint" />
            <mxPoint x="460" y="420" as="targetPoint" />
            <Array as="points">
              <mxPoint x="360" y="300" />
            </Array>
          </mxGeometry>
        </mxCell>
        <mxCell id="vbVjUOtdHf43oiDIbCuN-11" value="" style="endArrow=none;html=1;rounded=0;entryX=0;entryY=0.5;entryDx=0;entryDy=0;entryPerimeter=0;exitX=1;exitY=0.5;exitDx=0;exitDy=0;exitPerimeter=0;" parent="1" source="vbVjUOtdHf43oiDIbCuN-22" target="vbVjUOtdHf43oiDIbCuN-1" edge="1">
          <mxGeometry width="50" height="50" relative="1" as="geometry">
            <mxPoint x="320" y="390" as="sourcePoint" />
            <mxPoint x="460" y="420" as="targetPoint" />
          </mxGeometry>
        </mxCell>
        <mxCell id="vbVjUOtdHf43oiDIbCuN-13" value="" style="endArrow=none;html=1;rounded=0;exitX=1;exitY=1;exitDx=0;exitDy=0;exitPerimeter=0;" parent="1" source="vbVjUOtdHf43oiDIbCuN-4" edge="1">
          <mxGeometry width="50" height="50" relative="1" as="geometry">
            <mxPoint x="410" y="510" as="sourcePoint" />
            <mxPoint x="600.0000000000001" y="347.0176125244619" as="targetPoint" />
          </mxGeometry>
        </mxCell>
        <mxCell id="vbVjUOtdHf43oiDIbCuN-18" value="" style="triangle;whiteSpace=wrap;html=1;direction=south;" parent="1" vertex="1">
          <mxGeometry x="550" y="520" width="20" height="10" as="geometry" />
        </mxCell>
        <mxCell id="vbVjUOtdHf43oiDIbCuN-19" value="" style="endArrow=none;html=1;rounded=0;exitX=1;exitY=0;exitDx=0;exitDy=0;exitPerimeter=0;entryX=1;entryY=0;entryDx=0;entryDy=0;entryPerimeter=0;" parent="1" source="vbVjUOtdHf43oiDIbCuN-4" target="vbVjUOtdHf43oiDIbCuN-3" edge="1">
          <mxGeometry width="50" height="50" relative="1" as="geometry">
            <mxPoint x="470" y="300" as="sourcePoint" />
            <mxPoint x="520" y="250" as="targetPoint" />
          </mxGeometry>
        </mxCell>
        <mxCell id="vbVjUOtdHf43oiDIbCuN-21" value="&lt;font style=&quot;font-size: 12px;&quot;&gt;V&lt;sub&gt;dd&lt;/sub&gt;&lt;/font&gt;" style="verticalLabelPosition=top;verticalAlign=bottom;shape=mxgraph.electrical.signal_sources.vdd;shadow=0;dashed=0;align=center;strokeWidth=1;fontSize=24;html=1;flipV=1;" parent="1" vertex="1">
          <mxGeometry x="485" y="233" width="30" height="20" as="geometry" />
        </mxCell>
        <mxCell id="vbVjUOtdHf43oiDIbCuN-28" value="net15" style="text;html=1;strokeColor=none;fillColor=none;align=center;verticalAlign=middle;whiteSpace=wrap;rounded=0;" parent="1" vertex="1">
          <mxGeometry x="563" y="423" width="30" height="20" as="geometry" />
        </mxCell>
        <mxCell id="vbVjUOtdHf43oiDIbCuN-29" value="gnd" style="text;html=1;strokeColor=none;fillColor=none;align=center;verticalAlign=middle;whiteSpace=wrap;rounded=0;" parent="1" vertex="1">
          <mxGeometry x="570" y="513" width="30" height="20" as="geometry" />
        </mxCell>
        <mxCell id="vbVjUOtdHf43oiDIbCuN-30" value="XMN0" style="text;html=1;strokeColor=none;fillColor=none;align=center;verticalAlign=middle;whiteSpace=wrap;rounded=0;" parent="1" vertex="1">
          <mxGeometry x="562" y="470" width="30" height="20" as="geometry" />
        </mxCell>
        <mxCell id="vbVjUOtdHf43oiDIbCuN-31" value="XMN1" style="text;html=1;strokeColor=none;fillColor=none;align=center;verticalAlign=middle;whiteSpace=wrap;rounded=0;" parent="1" vertex="1">
          <mxGeometry x="562" y="380" width="30" height="20" as="geometry" />
        </mxCell>
        <mxCell id="vbVjUOtdHf43oiDIbCuN-32" value="XMP1" style="text;html=1;strokeColor=none;fillColor=none;align=center;verticalAlign=middle;whiteSpace=wrap;rounded=0;" parent="1" vertex="1">
          <mxGeometry x="561" y="291" width="30" height="20" as="geometry" />
        </mxCell>
        <mxCell id="vbVjUOtdHf43oiDIbCuN-33" value="XMP0" style="text;html=1;strokeColor=none;fillColor=none;align=center;verticalAlign=middle;whiteSpace=wrap;rounded=0;" parent="1" vertex="1">
          <mxGeometry x="441" y="291" width="30" height="20" as="geometry" />
        </mxCell>
        <mxCell id="vbVjUOtdHf43oiDIbCuN-34" value="" style="ellipse;whiteSpace=wrap;html=1;aspect=fixed;fillColor=#000000;" parent="1" vertex="1">
          <mxGeometry x="558.5" y="432.5" width="3" height="3" as="geometry" />
        </mxCell>
        <mxCell id="vbVjUOtdHf43oiDIbCuN-35" value="" style="group" parent="1" vertex="1" connectable="0">
          <mxGeometry x="300" y="472" width="30" height="16" as="geometry" />
        </mxCell>
        <mxCell id="vbVjUOtdHf43oiDIbCuN-24" value="" style="verticalLabelPosition=bottom;shadow=0;dashed=0;align=center;html=1;verticalAlign=top;shape=mxgraph.electrical.abstract.dac;fillColor=#dae8fc;strokeColor=#6c8ebf;" parent="vbVjUOtdHf43oiDIbCuN-35" vertex="1">
          <mxGeometry width="30" height="16" as="geometry" />
        </mxCell>
        <mxCell id="vbVjUOtdHf43oiDIbCuN-25" value="A" style="text;html=1;strokeColor=none;fillColor=none;align=center;verticalAlign=middle;whiteSpace=wrap;rounded=0;" parent="vbVjUOtdHf43oiDIbCuN-35" vertex="1">
          <mxGeometry x="8.25" y="4" width="7.5" height="7" as="geometry" />
        </mxCell>
        <mxCell id="vbVjUOtdHf43oiDIbCuN-36" value="" style="group" parent="1" vertex="1" connectable="0">
          <mxGeometry x="300" y="382" width="30" height="16" as="geometry" />
        </mxCell>
        <mxCell id="vbVjUOtdHf43oiDIbCuN-22" value="" style="verticalLabelPosition=bottom;shadow=0;dashed=0;align=center;html=1;verticalAlign=top;shape=mxgraph.electrical.abstract.dac;fillColor=#dae8fc;strokeColor=#6c8ebf;" parent="vbVjUOtdHf43oiDIbCuN-36" vertex="1">
          <mxGeometry width="30" height="16" as="geometry" />
        </mxCell>
        <mxCell id="vbVjUOtdHf43oiDIbCuN-23" value="B" style="text;html=1;strokeColor=none;fillColor=none;align=center;verticalAlign=middle;whiteSpace=wrap;rounded=0;" parent="vbVjUOtdHf43oiDIbCuN-36" vertex="1">
          <mxGeometry x="8.25" y="4" width="7.5" height="8" as="geometry" />
        </mxCell>
        <mxCell id="vbVjUOtdHf43oiDIbCuN-38" value="" style="ellipse;whiteSpace=wrap;html=1;aspect=fixed;fillColor=#000000;" parent="1" vertex="1">
          <mxGeometry x="478.55" y="388" width="3" height="3" as="geometry" />
        </mxCell>
        <mxCell id="vbVjUOtdHf43oiDIbCuN-40" value="" style="ellipse;whiteSpace=wrap;html=1;aspect=fixed;fillColor=#000000;" parent="1" vertex="1">
          <mxGeometry x="359" y="478" width="3" height="3" as="geometry" />
        </mxCell>
        <mxCell id="vbVjUOtdHf43oiDIbCuN-26" value="" style="verticalLabelPosition=bottom;shadow=0;dashed=0;align=center;html=1;verticalAlign=top;shape=mxgraph.electrical.abstract.dac;fillColor=#dae8fc;strokeColor=#6c8ebf;direction=east;container=0;" parent="1" vertex="1">
          <mxGeometry x="600" y="339" width="30" height="16" as="geometry" />
        </mxCell>
        <mxCell id="vbVjUOtdHf43oiDIbCuN-27" value="Z" style="text;html=1;strokeColor=none;fillColor=none;align=center;verticalAlign=middle;whiteSpace=wrap;rounded=0;container=0;" parent="1" vertex="1">
          <mxGeometry x="608" y="343.5" width="10" height="7" as="geometry" />
        </mxCell>
      </root>
    </mxGraphModel>
  </diagram>
  <diagram id="2eMEZkGnBPXyYc60e858" name="ND2HSX8">
    <mxGraphModel dx="313" dy="231" grid="1" gridSize="10" guides="1" tooltips="1" connect="1" arrows="1" fold="1" page="1" pageScale="1" pageWidth="1636" pageHeight="1580" math="0" shadow="0">
      <root>
        <mxCell id="0" />
        <mxCell id="1" parent="0" />
        <mxCell id="Swwfio5wurBxqK66nTax-1" value="" style="verticalLabelPosition=bottom;shadow=0;dashed=0;align=center;html=1;verticalAlign=top;shape=mxgraph.electrical.transistors.nmos;pointerEvents=1;" vertex="1" parent="1">
          <mxGeometry x="420" y="397" width="60" height="100" as="geometry" />
        </mxCell>
        <mxCell id="Swwfio5wurBxqK66nTax-2" value="" style="verticalLabelPosition=bottom;shadow=0;dashed=0;align=center;html=1;verticalAlign=top;shape=mxgraph.electrical.transistors.nmos;pointerEvents=1;" vertex="1" parent="1">
          <mxGeometry x="420" y="487.5" width="60" height="100" as="geometry" />
        </mxCell>
        <mxCell id="Swwfio5wurBxqK66nTax-3" value="" style="verticalLabelPosition=bottom;shadow=0;dashed=0;align=center;html=1;verticalAlign=top;shape=mxgraph.electrical.transistors.pmos;pointerEvents=1;" vertex="1" parent="1">
          <mxGeometry x="460" y="262.5" width="60" height="100" as="geometry" />
        </mxCell>
        <mxCell id="Swwfio5wurBxqK66nTax-4" value="" style="verticalLabelPosition=bottom;shadow=0;dashed=0;align=center;html=1;verticalAlign=top;shape=mxgraph.electrical.transistors.pmos;pointerEvents=1;" vertex="1" parent="1">
          <mxGeometry x="380" y="262.5" width="60" height="100" as="geometry" />
        </mxCell>
        <mxCell id="Swwfio5wurBxqK66nTax-9" value="" style="endArrow=none;html=1;rounded=0;exitX=1;exitY=0;exitDx=0;exitDy=0;exitPerimeter=0;entryX=1;entryY=0;entryDx=0;entryDy=0;entryPerimeter=0;" edge="1" parent="1" source="Swwfio5wurBxqK66nTax-4" target="Swwfio5wurBxqK66nTax-30">
          <mxGeometry width="50" height="50" relative="1" as="geometry">
            <mxPoint x="440" y="262.62285714285713" as="sourcePoint" />
            <mxPoint x="600" y="262.49761252446194" as="targetPoint" />
          </mxGeometry>
        </mxCell>
        <mxCell id="Swwfio5wurBxqK66nTax-10" value="" style="triangle;whiteSpace=wrap;html=1;direction=south;" vertex="1" parent="1">
          <mxGeometry x="470" y="577.5" width="20" height="10" as="geometry" />
        </mxCell>
        <mxCell id="Swwfio5wurBxqK66nTax-12" value="&lt;font style=&quot;font-size: 12px;&quot;&gt;V&lt;sub&gt;dd&lt;/sub&gt;&lt;/font&gt;" style="verticalLabelPosition=top;verticalAlign=bottom;shape=mxgraph.electrical.signal_sources.vdd;shadow=0;dashed=0;align=center;strokeWidth=1;fontSize=24;html=1;flipV=1;" vertex="1" parent="1">
          <mxGeometry x="505" y="245.5" width="30" height="20" as="geometry" />
        </mxCell>
        <mxCell id="Swwfio5wurBxqK66nTax-13" value="net132" style="text;html=1;strokeColor=none;fillColor=none;align=center;verticalAlign=middle;whiteSpace=wrap;rounded=0;" vertex="1" parent="1">
          <mxGeometry x="486" y="480.5" width="30" height="20" as="geometry" />
        </mxCell>
        <mxCell id="Swwfio5wurBxqK66nTax-14" value="gnd" style="text;html=1;strokeColor=none;fillColor=none;align=center;verticalAlign=middle;whiteSpace=wrap;rounded=0;" vertex="1" parent="1">
          <mxGeometry x="490" y="570.5" width="30" height="20" as="geometry" />
        </mxCell>
        <mxCell id="Swwfio5wurBxqK66nTax-15" value="XMN7" style="text;html=1;strokeColor=none;fillColor=none;align=center;verticalAlign=middle;whiteSpace=wrap;rounded=0;" vertex="1" parent="1">
          <mxGeometry x="483" y="507.5" width="30" height="20" as="geometry" />
        </mxCell>
        <mxCell id="Swwfio5wurBxqK66nTax-16" value="XMN6" style="text;html=1;strokeColor=none;fillColor=none;align=center;verticalAlign=middle;whiteSpace=wrap;rounded=0;" vertex="1" parent="1">
          <mxGeometry x="483" y="417.5" width="30" height="20" as="geometry" />
        </mxCell>
        <mxCell id="Swwfio5wurBxqK66nTax-19" value="" style="ellipse;whiteSpace=wrap;html=1;aspect=fixed;fillColor=#000000;" vertex="1" parent="1">
          <mxGeometry x="478.5" y="490" width="3" height="3" as="geometry" />
        </mxCell>
        <mxCell id="Swwfio5wurBxqK66nTax-20" value="" style="group" vertex="1" connectable="0" parent="1">
          <mxGeometry x="390" y="529" width="30" height="16" as="geometry" />
        </mxCell>
        <mxCell id="Swwfio5wurBxqK66nTax-21" value="" style="verticalLabelPosition=bottom;shadow=0;dashed=0;align=center;html=1;verticalAlign=top;shape=mxgraph.electrical.abstract.dac;fillColor=#dae8fc;strokeColor=#6c8ebf;" vertex="1" parent="Swwfio5wurBxqK66nTax-20">
          <mxGeometry width="30" height="16" as="geometry" />
        </mxCell>
        <mxCell id="Swwfio5wurBxqK66nTax-22" value="A" style="text;html=1;strokeColor=none;fillColor=none;align=center;verticalAlign=middle;whiteSpace=wrap;rounded=0;" vertex="1" parent="Swwfio5wurBxqK66nTax-20">
          <mxGeometry x="8.25" y="4" width="7.5" height="7" as="geometry" />
        </mxCell>
        <mxCell id="Swwfio5wurBxqK66nTax-28" value="" style="verticalLabelPosition=bottom;shadow=0;dashed=0;align=center;html=1;verticalAlign=top;shape=mxgraph.electrical.abstract.dac;fillColor=#dae8fc;strokeColor=#6c8ebf;direction=east;container=0;" vertex="1" parent="1">
          <mxGeometry x="900" y="392" width="30" height="16" as="geometry" />
        </mxCell>
        <mxCell id="Swwfio5wurBxqK66nTax-29" value="Z" style="text;html=1;strokeColor=none;fillColor=none;align=center;verticalAlign=middle;whiteSpace=wrap;rounded=0;container=0;" vertex="1" parent="1">
          <mxGeometry x="908" y="396.5" width="10" height="7" as="geometry" />
        </mxCell>
        <mxCell id="Swwfio5wurBxqK66nTax-30" value="" style="verticalLabelPosition=bottom;shadow=0;dashed=0;align=center;html=1;verticalAlign=top;shape=mxgraph.electrical.transistors.pmos;pointerEvents=1;" vertex="1" parent="1">
          <mxGeometry x="540" y="262.5" width="60" height="100" as="geometry" />
        </mxCell>
        <mxCell id="Swwfio5wurBxqK66nTax-31" value="" style="verticalLabelPosition=bottom;shadow=0;dashed=0;align=center;html=1;verticalAlign=top;shape=mxgraph.electrical.transistors.pmos;pointerEvents=1;" vertex="1" parent="1">
          <mxGeometry x="720" y="262.5" width="60" height="100" as="geometry" />
        </mxCell>
        <mxCell id="Swwfio5wurBxqK66nTax-32" value="" style="verticalLabelPosition=bottom;shadow=0;dashed=0;align=center;html=1;verticalAlign=top;shape=mxgraph.electrical.transistors.pmos;pointerEvents=1;" vertex="1" parent="1">
          <mxGeometry x="640" y="262.5" width="60" height="100" as="geometry" />
        </mxCell>
        <mxCell id="Swwfio5wurBxqK66nTax-33" value="" style="verticalLabelPosition=bottom;shadow=0;dashed=0;align=center;html=1;verticalAlign=top;shape=mxgraph.electrical.transistors.pmos;pointerEvents=1;" vertex="1" parent="1">
          <mxGeometry x="800" y="262.5" width="60" height="100" as="geometry" />
        </mxCell>
        <mxCell id="Swwfio5wurBxqK66nTax-34" value="" style="endArrow=none;html=1;rounded=0;exitX=1;exitY=0;exitDx=0;exitDy=0;exitPerimeter=0;entryX=1;entryY=0;entryDx=0;entryDy=0;entryPerimeter=0;" edge="1" parent="1" source="Swwfio5wurBxqK66nTax-32" target="Swwfio5wurBxqK66nTax-33">
          <mxGeometry width="50" height="50" relative="1" as="geometry">
            <mxPoint x="730" y="240" as="sourcePoint" />
            <mxPoint x="890" y="240" as="targetPoint" />
          </mxGeometry>
        </mxCell>
        <mxCell id="Swwfio5wurBxqK66nTax-35" value="&lt;font style=&quot;font-size: 12px;&quot;&gt;V&lt;sub&gt;dd&lt;/sub&gt;&lt;/font&gt;" style="verticalLabelPosition=top;verticalAlign=bottom;shape=mxgraph.electrical.signal_sources.vdd;shadow=0;dashed=0;align=center;strokeWidth=1;fontSize=24;html=1;flipV=1;" vertex="1" parent="1">
          <mxGeometry x="765" y="245.5" width="30" height="20" as="geometry" />
        </mxCell>
        <mxCell id="Swwfio5wurBxqK66nTax-36" value="" style="endArrow=none;html=1;rounded=0;exitX=1;exitY=1;exitDx=0;exitDy=0;exitPerimeter=0;entryX=1;entryY=1;entryDx=0;entryDy=0;entryPerimeter=0;" edge="1" parent="1" source="Swwfio5wurBxqK66nTax-4" target="Swwfio5wurBxqK66nTax-30">
          <mxGeometry width="50" height="50" relative="1" as="geometry">
            <mxPoint x="440" y="359.82999999999987" as="sourcePoint" />
            <mxPoint x="600" y="359.82999999999987" as="targetPoint" />
          </mxGeometry>
        </mxCell>
        <mxCell id="Swwfio5wurBxqK66nTax-37" value="" style="endArrow=none;html=1;rounded=0;exitX=0;exitY=0.5;exitDx=0;exitDy=0;exitPerimeter=0;entryX=0;entryY=0.5;entryDx=0;entryDy=0;entryPerimeter=0;" edge="1" parent="1" source="Swwfio5wurBxqK66nTax-32" target="Swwfio5wurBxqK66nTax-33">
          <mxGeometry width="50" height="50" relative="1" as="geometry">
            <mxPoint x="710" y="330" as="sourcePoint" />
            <mxPoint x="870" y="330" as="targetPoint" />
          </mxGeometry>
        </mxCell>
        <mxCell id="Swwfio5wurBxqK66nTax-39" value="" style="endArrow=none;html=1;rounded=0;exitX=1;exitY=1;exitDx=0;exitDy=0;exitPerimeter=0;entryX=1;entryY=1;entryDx=0;entryDy=0;entryPerimeter=0;" edge="1" parent="1" source="Swwfio5wurBxqK66nTax-32" target="Swwfio5wurBxqK66nTax-33">
          <mxGeometry width="50" height="50" relative="1" as="geometry">
            <mxPoint x="700" y="359.83" as="sourcePoint" />
            <mxPoint x="860" y="359.83" as="targetPoint" />
          </mxGeometry>
        </mxCell>
        <mxCell id="Swwfio5wurBxqK66nTax-40" value="" style="verticalLabelPosition=bottom;shadow=0;dashed=0;align=center;html=1;verticalAlign=top;shape=mxgraph.electrical.transistors.nmos;pointerEvents=1;" vertex="1" parent="1">
          <mxGeometry x="500" y="397" width="60" height="100" as="geometry" />
        </mxCell>
        <mxCell id="Swwfio5wurBxqK66nTax-41" value="" style="verticalLabelPosition=bottom;shadow=0;dashed=0;align=center;html=1;verticalAlign=top;shape=mxgraph.electrical.transistors.nmos;pointerEvents=1;" vertex="1" parent="1">
          <mxGeometry x="500" y="487.5" width="60" height="100" as="geometry" />
        </mxCell>
        <mxCell id="Swwfio5wurBxqK66nTax-42" value="" style="triangle;whiteSpace=wrap;html=1;direction=south;" vertex="1" parent="1">
          <mxGeometry x="550" y="577.5" width="20" height="10" as="geometry" />
        </mxCell>
        <mxCell id="Swwfio5wurBxqK66nTax-43" value="net140" style="text;html=1;strokeColor=none;fillColor=none;align=center;verticalAlign=middle;whiteSpace=wrap;rounded=0;" vertex="1" parent="1">
          <mxGeometry x="566" y="480.5" width="30" height="20" as="geometry" />
        </mxCell>
        <mxCell id="Swwfio5wurBxqK66nTax-44" value="gnd" style="text;html=1;strokeColor=none;fillColor=none;align=center;verticalAlign=middle;whiteSpace=wrap;rounded=0;" vertex="1" parent="1">
          <mxGeometry x="570" y="570.5" width="30" height="20" as="geometry" />
        </mxCell>
        <mxCell id="Swwfio5wurBxqK66nTax-45" value="XMN5" style="text;html=1;strokeColor=none;fillColor=none;align=center;verticalAlign=middle;whiteSpace=wrap;rounded=0;" vertex="1" parent="1">
          <mxGeometry x="564" y="507.5" width="30" height="20" as="geometry" />
        </mxCell>
        <mxCell id="Swwfio5wurBxqK66nTax-46" value="XMN4" style="text;html=1;strokeColor=none;fillColor=none;align=center;verticalAlign=middle;whiteSpace=wrap;rounded=0;" vertex="1" parent="1">
          <mxGeometry x="563" y="420" width="30" height="20" as="geometry" />
        </mxCell>
        <mxCell id="Swwfio5wurBxqK66nTax-47" value="" style="ellipse;whiteSpace=wrap;html=1;aspect=fixed;fillColor=#000000;" vertex="1" parent="1">
          <mxGeometry x="558.5" y="490" width="3" height="3" as="geometry" />
        </mxCell>
        <mxCell id="Swwfio5wurBxqK66nTax-48" value="" style="verticalLabelPosition=bottom;shadow=0;dashed=0;align=center;html=1;verticalAlign=top;shape=mxgraph.electrical.transistors.nmos;pointerEvents=1;" vertex="1" parent="1">
          <mxGeometry x="680" y="397" width="60" height="100" as="geometry" />
        </mxCell>
        <mxCell id="Swwfio5wurBxqK66nTax-49" value="" style="verticalLabelPosition=bottom;shadow=0;dashed=0;align=center;html=1;verticalAlign=top;shape=mxgraph.electrical.transistors.nmos;pointerEvents=1;" vertex="1" parent="1">
          <mxGeometry x="680" y="487.5" width="60" height="100" as="geometry" />
        </mxCell>
        <mxCell id="Swwfio5wurBxqK66nTax-50" value="" style="triangle;whiteSpace=wrap;html=1;direction=south;" vertex="1" parent="1">
          <mxGeometry x="730" y="577.5" width="20" height="10" as="geometry" />
        </mxCell>
        <mxCell id="Swwfio5wurBxqK66nTax-51" value="net148" style="text;html=1;strokeColor=none;fillColor=none;align=center;verticalAlign=middle;whiteSpace=wrap;rounded=0;" vertex="1" parent="1">
          <mxGeometry x="746" y="480.5" width="30" height="20" as="geometry" />
        </mxCell>
        <mxCell id="Swwfio5wurBxqK66nTax-52" value="gnd" style="text;html=1;strokeColor=none;fillColor=none;align=center;verticalAlign=middle;whiteSpace=wrap;rounded=0;" vertex="1" parent="1">
          <mxGeometry x="750" y="570.5" width="30" height="20" as="geometry" />
        </mxCell>
        <mxCell id="Swwfio5wurBxqK66nTax-53" value="XMN2" style="text;html=1;strokeColor=none;fillColor=none;align=center;verticalAlign=middle;whiteSpace=wrap;rounded=0;" vertex="1" parent="1">
          <mxGeometry x="743" y="507.5" width="30" height="20" as="geometry" />
        </mxCell>
        <mxCell id="Swwfio5wurBxqK66nTax-54" value="XMN3" style="text;html=1;strokeColor=none;fillColor=none;align=center;verticalAlign=middle;whiteSpace=wrap;rounded=0;" vertex="1" parent="1">
          <mxGeometry x="743" y="420" width="30" height="20" as="geometry" />
        </mxCell>
        <mxCell id="Swwfio5wurBxqK66nTax-55" value="" style="ellipse;whiteSpace=wrap;html=1;aspect=fixed;fillColor=#000000;" vertex="1" parent="1">
          <mxGeometry x="738.5" y="490" width="3" height="3" as="geometry" />
        </mxCell>
        <mxCell id="Swwfio5wurBxqK66nTax-56" value="" style="verticalLabelPosition=bottom;shadow=0;dashed=0;align=center;html=1;verticalAlign=top;shape=mxgraph.electrical.transistors.nmos;pointerEvents=1;" vertex="1" parent="1">
          <mxGeometry x="765" y="397" width="60" height="100" as="geometry" />
        </mxCell>
        <mxCell id="Swwfio5wurBxqK66nTax-57" value="" style="verticalLabelPosition=bottom;shadow=0;dashed=0;align=center;html=1;verticalAlign=top;shape=mxgraph.electrical.transistors.nmos;pointerEvents=1;" vertex="1" parent="1">
          <mxGeometry x="765" y="487.5" width="60" height="100" as="geometry" />
        </mxCell>
        <mxCell id="Swwfio5wurBxqK66nTax-58" value="" style="triangle;whiteSpace=wrap;html=1;direction=south;" vertex="1" parent="1">
          <mxGeometry x="815" y="577.5" width="20" height="10" as="geometry" />
        </mxCell>
        <mxCell id="Swwfio5wurBxqK66nTax-59" value="net156" style="text;html=1;strokeColor=none;fillColor=none;align=center;verticalAlign=middle;whiteSpace=wrap;rounded=0;" vertex="1" parent="1">
          <mxGeometry x="831" y="480.5" width="30" height="20" as="geometry" />
        </mxCell>
        <mxCell id="Swwfio5wurBxqK66nTax-60" value="gnd" style="text;html=1;strokeColor=none;fillColor=none;align=center;verticalAlign=middle;whiteSpace=wrap;rounded=0;" vertex="1" parent="1">
          <mxGeometry x="835" y="570.5" width="30" height="20" as="geometry" />
        </mxCell>
        <mxCell id="Swwfio5wurBxqK66nTax-61" value="XMN0" style="text;html=1;strokeColor=none;fillColor=none;align=center;verticalAlign=middle;whiteSpace=wrap;rounded=0;" vertex="1" parent="1">
          <mxGeometry x="828" y="507.5" width="30" height="20" as="geometry" />
        </mxCell>
        <mxCell id="Swwfio5wurBxqK66nTax-62" value="XMN1" style="text;html=1;strokeColor=none;fillColor=none;align=center;verticalAlign=middle;whiteSpace=wrap;rounded=0;" vertex="1" parent="1">
          <mxGeometry x="827.5" y="420" width="30" height="20" as="geometry" />
        </mxCell>
        <mxCell id="Swwfio5wurBxqK66nTax-63" value="" style="ellipse;whiteSpace=wrap;html=1;aspect=fixed;fillColor=#000000;" vertex="1" parent="1">
          <mxGeometry x="823.5" y="490" width="3" height="3" as="geometry" />
        </mxCell>
        <mxCell id="Swwfio5wurBxqK66nTax-64" value="" style="endArrow=none;html=1;rounded=0;exitX=1;exitY=0;exitDx=0;exitDy=0;exitPerimeter=0;" edge="1" parent="1" source="Swwfio5wurBxqK66nTax-1">
          <mxGeometry width="50" height="50" relative="1" as="geometry">
            <mxPoint x="450" y="370" as="sourcePoint" />
            <mxPoint x="900" y="400" as="targetPoint" />
          </mxGeometry>
        </mxCell>
        <mxCell id="Swwfio5wurBxqK66nTax-65" value="" style="endArrow=none;html=1;rounded=0;" edge="1" parent="1">
          <mxGeometry width="50" height="50" relative="1" as="geometry">
            <mxPoint x="519.9" y="400" as="sourcePoint" />
            <mxPoint x="519.9" y="360" as="targetPoint" />
          </mxGeometry>
        </mxCell>
        <mxCell id="Swwfio5wurBxqK66nTax-66" value="" style="endArrow=none;html=1;rounded=0;" edge="1" parent="1">
          <mxGeometry width="50" height="50" relative="1" as="geometry">
            <mxPoint x="780" y="400" as="sourcePoint" />
            <mxPoint x="780" y="360" as="targetPoint" />
          </mxGeometry>
        </mxCell>
        <mxCell id="Swwfio5wurBxqK66nTax-67" value="" style="endArrow=none;html=1;rounded=0;exitX=0;exitY=0.5;exitDx=0;exitDy=0;exitPerimeter=0;entryX=0;entryY=0.5;entryDx=0;entryDy=0;entryPerimeter=0;" edge="1" parent="1" source="Swwfio5wurBxqK66nTax-4" target="Swwfio5wurBxqK66nTax-30">
          <mxGeometry width="50" height="50" relative="1" as="geometry">
            <mxPoint x="450" y="275" as="sourcePoint" />
            <mxPoint x="610" y="275" as="targetPoint" />
          </mxGeometry>
        </mxCell>
        <mxCell id="Swwfio5wurBxqK66nTax-69" value="" style="endArrow=none;html=1;rounded=0;exitX=1;exitY=0.5;exitDx=0;exitDy=0;exitPerimeter=0;entryX=0;entryY=0.5;entryDx=0;entryDy=0;entryPerimeter=0;" edge="1" parent="1" source="Swwfio5wurBxqK66nTax-21" target="Swwfio5wurBxqK66nTax-57">
          <mxGeometry width="50" height="50" relative="1" as="geometry">
            <mxPoint x="670" y="490" as="sourcePoint" />
            <mxPoint x="830" y="490" as="targetPoint" />
          </mxGeometry>
        </mxCell>
        <mxCell id="Swwfio5wurBxqK66nTax-70" value="" style="endArrow=none;html=1;rounded=0;exitX=0;exitY=0.5;exitDx=0;exitDy=0;exitPerimeter=0;entryX=0;entryY=0.5;entryDx=0;entryDy=0;entryPerimeter=0;" edge="1" parent="1" source="Swwfio5wurBxqK66nTax-1" target="Swwfio5wurBxqK66nTax-56">
          <mxGeometry width="50" height="50" relative="1" as="geometry">
            <mxPoint x="470" y="295" as="sourcePoint" />
            <mxPoint x="630" y="295" as="targetPoint" />
          </mxGeometry>
        </mxCell>
        <mxCell id="Swwfio5wurBxqK66nTax-76" value="XMP7" style="text;html=1;strokeColor=none;fillColor=none;align=center;verticalAlign=middle;whiteSpace=wrap;rounded=0;" vertex="1" parent="1">
          <mxGeometry x="445" y="283.19" width="30" height="20" as="geometry" />
        </mxCell>
        <mxCell id="Swwfio5wurBxqK66nTax-77" value="XMP7_2" style="text;html=1;strokeColor=none;fillColor=none;align=center;verticalAlign=middle;whiteSpace=wrap;rounded=0;" vertex="1" parent="1">
          <mxGeometry x="531" y="283.19" width="30" height="20" as="geometry" />
        </mxCell>
        <mxCell id="Swwfio5wurBxqK66nTax-78" value="XMP7_3" style="text;html=1;strokeColor=none;fillColor=none;align=center;verticalAlign=middle;whiteSpace=wrap;rounded=0;" vertex="1" parent="1">
          <mxGeometry x="610" y="283.19" width="30" height="20" as="geometry" />
        </mxCell>
        <mxCell id="Swwfio5wurBxqK66nTax-79" value="XMP6" style="text;html=1;strokeColor=none;fillColor=none;align=center;verticalAlign=middle;whiteSpace=wrap;rounded=0;" vertex="1" parent="1">
          <mxGeometry x="704" y="284" width="30" height="20" as="geometry" />
        </mxCell>
        <mxCell id="Swwfio5wurBxqK66nTax-80" value="XMP6_2" style="text;html=1;strokeColor=none;fillColor=none;align=center;verticalAlign=middle;whiteSpace=wrap;rounded=0;" vertex="1" parent="1">
          <mxGeometry x="790" y="284" width="30" height="20" as="geometry" />
        </mxCell>
        <mxCell id="Swwfio5wurBxqK66nTax-81" value="XMP6_3" style="text;html=1;strokeColor=none;fillColor=none;align=center;verticalAlign=middle;whiteSpace=wrap;rounded=0;" vertex="1" parent="1">
          <mxGeometry x="870" y="284" width="30" height="20" as="geometry" />
        </mxCell>
        <mxCell id="Swwfio5wurBxqK66nTax-84" value="" style="group" vertex="1" connectable="0" parent="1">
          <mxGeometry x="349.25" y="305" width="30" height="16" as="geometry" />
        </mxCell>
        <mxCell id="Swwfio5wurBxqK66nTax-85" value="" style="verticalLabelPosition=bottom;shadow=0;dashed=0;align=center;html=1;verticalAlign=top;shape=mxgraph.electrical.abstract.dac;fillColor=#dae8fc;strokeColor=#6c8ebf;" vertex="1" parent="Swwfio5wurBxqK66nTax-84">
          <mxGeometry width="30" height="16" as="geometry" />
        </mxCell>
        <mxCell id="Swwfio5wurBxqK66nTax-86" value="A" style="text;html=1;strokeColor=none;fillColor=none;align=center;verticalAlign=middle;whiteSpace=wrap;rounded=0;" vertex="1" parent="Swwfio5wurBxqK66nTax-84">
          <mxGeometry x="8.25" y="4" width="7.5" height="7" as="geometry" />
        </mxCell>
        <mxCell id="Swwfio5wurBxqK66nTax-87" value="" style="group" vertex="1" connectable="0" parent="1">
          <mxGeometry x="389" y="439" width="30" height="16" as="geometry" />
        </mxCell>
        <mxCell id="Swwfio5wurBxqK66nTax-88" value="" style="verticalLabelPosition=bottom;shadow=0;dashed=0;align=center;html=1;verticalAlign=top;shape=mxgraph.electrical.abstract.dac;fillColor=#dae8fc;strokeColor=#6c8ebf;" vertex="1" parent="Swwfio5wurBxqK66nTax-87">
          <mxGeometry width="30" height="16" as="geometry" />
        </mxCell>
        <mxCell id="Swwfio5wurBxqK66nTax-89" value="B" style="text;html=1;strokeColor=none;fillColor=none;align=center;verticalAlign=middle;whiteSpace=wrap;rounded=0;" vertex="1" parent="Swwfio5wurBxqK66nTax-87">
          <mxGeometry x="8.25" y="4" width="7.5" height="8" as="geometry" />
        </mxCell>
        <mxCell id="Swwfio5wurBxqK66nTax-90" value="" style="group" vertex="1" connectable="0" parent="1">
          <mxGeometry x="610" y="305" width="30" height="16" as="geometry" />
        </mxCell>
        <mxCell id="Swwfio5wurBxqK66nTax-91" value="" style="verticalLabelPosition=bottom;shadow=0;dashed=0;align=center;html=1;verticalAlign=top;shape=mxgraph.electrical.abstract.dac;fillColor=#dae8fc;strokeColor=#6c8ebf;" vertex="1" parent="Swwfio5wurBxqK66nTax-90">
          <mxGeometry width="30" height="16" as="geometry" />
        </mxCell>
        <mxCell id="Swwfio5wurBxqK66nTax-92" value="B" style="text;html=1;strokeColor=none;fillColor=none;align=center;verticalAlign=middle;whiteSpace=wrap;rounded=0;" vertex="1" parent="Swwfio5wurBxqK66nTax-90">
          <mxGeometry x="8.25" y="4" width="7.5" height="8" as="geometry" />
        </mxCell>
      </root>
    </mxGraphModel>
  </diagram>
</mxfile>
